<svg version="1.1" id="Layer_1" xmlns="http://www.w3.org/2000/svg" xmlns:xlink="http://www.w3.org/1999/xlink" x="0px" y="0px"
	 width="100%" viewBox="0 0 256 256" enable-background="new 0 0 256 256" xml:space="preserve">
<path fill="#000000" opacity="0" stroke="none" 
	d="
M139.000000,257.000000 
	C92.666672,257.000000 46.833340,257.000000 1.000006,257.000000 
	C1.000004,171.666672 1.000004,86.333351 1.000002,1.000018 
	C86.333321,1.000012 171.666641,1.000012 257.000000,1.000006 
	C257.000000,86.333313 257.000000,171.666626 257.000000,256.999969 
	C217.833328,257.000000 178.666672,257.000000 139.000000,257.000000 
M110.871803,60.910332 
	C102.201897,60.314526 93.174171,57.879730 84.932205,59.483349 
	C64.000137,63.556053 49.718937,75.958229 44.974094,97.654152 
	C44.276127,100.845642 42.463238,102.755524 39.452724,104.398537 
	C34.033703,107.356041 28.455297,110.498878 24.022327,114.702110 
	C6.027818,131.764038 0.827663,153.122345 5.554761,176.870041 
	C8.559363,191.964401 16.545509,204.426453 29.155560,213.652481 
	C40.088253,221.651306 52.001507,226.976212 65.812248,226.985046 
	C109.297195,227.012848 152.782394,227.075638 196.266983,226.949615 
	C210.840469,226.907379 223.543396,221.219833 233.919144,211.381668 
	C250.604294,195.560974 256.541901,175.854706 253.044708,153.131149 
	C250.195175,134.615891 240.801666,120.616142 224.828247,111.007782 
	C222.042191,109.331917 220.730499,107.468727 220.874939,104.003746 
	C221.051666,99.763618 220.768005,95.400520 219.938370,91.239128 
	C214.671768,64.822243 199.451675,46.857777 173.886414,37.950096 
	C161.056717,33.479858 147.876801,34.333878 134.811707,36.270958 
	C128.845322,37.155556 124.919189,40.438995 124.348373,49.114620 
	C120.099503,53.098339 115.850639,57.082054 110.871803,60.910332 
z"/>
<path fill="#FCFDFE" opacity="1.000000" stroke="none" 
	d="
M111.601768,61.065773 
	C115.850639,57.082054 120.099503,53.098339 124.974762,49.134323 
	C129.630722,55.588448 131.431458,56.284328 138.737915,54.678268 
	C158.097183,50.422825 175.177139,54.471142 188.965897,69.203049 
	C201.096130,82.162979 205.171783,97.653320 201.669495,114.946068 
	C200.796616,119.255981 202.015900,120.996513 205.866776,122.250404 
	C208.846939,123.220787 211.720657,124.701721 214.418076,126.326851 
	C231.261597,136.474625 239.163177,156.746994 233.966202,176.172989 
	C228.861832,195.252853 211.922318,208.765640 192.190659,208.845764 
	C151.365112,209.011505 110.538391,208.909653 69.712242,208.850189 
	C66.900810,208.846100 64.067291,208.419464 61.282787,207.956375 
	C37.694675,204.033447 20.243990,181.517303 22.750811,157.811615 
	C24.904593,137.444427 36.488457,124.348145 55.516533,117.795464 
	C60.138474,116.203804 61.998020,114.254486 62.015121,109.118240 
	C62.076931,90.550690 76.472725,76.616356 94.833145,76.712158 
	C113.210640,76.808037 127.822342,91.340530 127.959007,109.734673 
	C128.024612,118.565941 127.959068,127.398170 127.956345,136.229965 
	C127.953812,144.474762 127.955803,152.719559 127.955803,162.067810 
	C120.400314,155.342270 113.730659,149.395416 107.049583,143.461426 
	C102.406708,139.337738 98.035645,139.094604 94.804443,142.755112 
	C91.641197,146.338623 92.213867,151.033539 96.624664,155.022141 
	C107.375435,164.743866 118.183250,174.403778 129.057938,183.986603 
	C134.078964,188.411148 137.213486,188.381790 142.200836,183.995056 
	C149.581375,177.503326 156.861542,170.897278 164.168457,164.322128 
	C168.254257,160.645508 172.465363,157.088745 176.323715,153.185120 
	C179.173798,150.301605 178.948639,145.548950 176.348495,142.735535 
	C173.513184,139.667648 169.533340,139.281967 165.997955,141.853729 
	C164.657288,142.828964 163.492279,144.045547 162.246155,145.150909 
	C156.669327,150.097855 151.092102,155.044342 144.664856,160.745056 
	C144.496979,157.902939 144.295319,156.150177 144.305603,154.398666 
	C144.383820,141.070831 144.390671,127.741173 144.635162,114.416031 
	C145.062271,91.135826 135.549057,73.950127 114.186508,63.794445 
	C113.131058,63.292690 112.454666,61.993591 111.601768,61.065773 
z"/>
<path fill="#3A85CA" opacity="1.000000" stroke="none" 
	d="
M111.236786,60.988052 
	C112.454666,61.993591 113.131058,63.292690 114.186508,63.794445 
	C135.549057,73.950127 145.062271,91.135826 144.635162,114.416031 
	C144.390671,127.741173 144.383820,141.070831 144.305603,154.398666 
	C144.295319,156.150177 144.496979,157.902939 144.664856,160.745056 
	C151.092102,155.044342 156.669327,150.097855 162.246155,145.150909 
	C163.492279,144.045547 164.657288,142.828964 165.997955,141.853729 
	C169.533340,139.281967 173.513184,139.667648 176.348495,142.735535 
	C178.948639,145.548950 179.173798,150.301605 176.323715,153.185120 
	C172.465363,157.088745 168.254257,160.645508 164.168457,164.322128 
	C156.861542,170.897278 149.581375,177.503326 142.200836,183.995056 
	C137.213486,188.381790 134.078964,188.411148 129.057938,183.986603 
	C118.183250,174.403778 107.375435,164.743866 96.624664,155.022141 
	C92.213867,151.033539 91.641197,146.338623 94.804443,142.755112 
	C98.035645,139.094604 102.406708,139.337738 107.049583,143.461426 
	C113.730659,149.395416 120.400314,155.342270 127.955803,162.067810 
	C127.955803,152.719559 127.953812,144.474762 127.956345,136.229965 
	C127.959068,127.398170 128.024612,118.565941 127.959007,109.734673 
	C127.822342,91.340530 113.210640,76.808037 94.833145,76.712158 
	C76.472725,76.616356 62.076931,90.550690 62.015121,109.118240 
	C61.998020,114.254486 60.138474,116.203804 55.516533,117.795464 
	C36.488457,124.348145 24.904593,137.444427 22.750811,157.811615 
	C20.243990,181.517303 37.694675,204.033447 61.282787,207.956375 
	C64.067291,208.419464 66.900810,208.846100 69.712242,208.850189 
	C110.538391,208.909653 151.365112,209.011505 192.190659,208.845764 
	C211.922318,208.765640 228.861832,195.252853 233.966202,176.172989 
	C239.163177,156.746994 231.261597,136.474625 214.418076,126.326851 
	C211.720657,124.701721 208.846939,123.220787 205.866776,122.250404 
	C202.015900,120.996513 200.796616,119.255981 201.669495,114.946068 
	C205.171783,97.653320 201.096130,82.162979 188.965897,69.203049 
	C175.177139,54.471142 158.097183,50.422825 138.737915,54.678268 
	C131.431458,56.284328 129.630722,55.588448 125.296097,48.984749 
	C124.919189,40.438995 128.845322,37.155556 134.811707,36.270958 
	C147.876801,34.333878 161.056717,33.479858 173.886414,37.950096 
	C199.451675,46.857777 214.671768,64.822243 219.938370,91.239128 
	C220.768005,95.400520 221.051666,99.763618 220.874939,104.003746 
	C220.730499,107.468727 222.042191,109.331917 224.828247,111.007782 
	C240.801666,120.616142 250.195175,134.615891 253.044708,153.131149 
	C256.541901,175.854706 250.604294,195.560974 233.919144,211.381668 
	C223.543396,221.219833 210.840469,226.907379 196.266983,226.949615 
	C152.782394,227.075638 109.297195,227.012848 65.812248,226.985046 
	C52.001507,226.976212 40.088253,221.651306 29.155560,213.652481 
	C16.545509,204.426453 8.559363,191.964401 5.554761,176.870041 
	C0.827663,153.122345 6.027818,131.764038 24.022327,114.702110 
	C28.455297,110.498878 34.033703,107.356041 39.452724,104.398537 
	C42.463238,102.755524 44.276127,100.845642 44.974094,97.654152 
	C49.718937,75.958229 64.000137,63.556053 84.932205,59.483349 
	C93.174171,57.879730 102.201897,60.314526 111.236786,60.988052 
z"/>
</svg>